<?xml version="1.0" standalone="no"?>
<!DOCTYPE svg PUBLIC "-//W3C//DTD SVG 20010904//EN"
 "http://www.w3.org/TR/2001/REC-SVG-20010904/DTD/svg10.dtd">
<svg version="1.0" xmlns="http://www.w3.org/2000/svg"
 width="256.000000pt" height="256.000000pt" viewBox="0 0 256.000000 256.000000"
 preserveAspectRatio="xMidYMid meet">
<metadata>
Created by potrace 1.14, written by Peter Selinger 2001-2017
</metadata>
<g transform="translate(0.000000,256.000000) scale(0.100000,-0.100000)"
fill="#000000" stroke="none">
<path d="M1700 2355 c-16 -8 -116 -162 -285 -439 -143 -234 -262 -426 -265
-426 -3 0 -70 106 -149 235 -80 130 -149 239 -155 244 -31 24 -767 391 -785
391 -12 0 -30 -9 -41 -20 -20 -20 -20 -33 -20 -865 0 -911 -2 -873 52 -921 35
-31 703 -364 731 -364 13 0 33 10 45 23 22 23 22 27 22 406 0 210 3 381 8 379
4 -2 362 -180 797 -397 434 -216 803 -395 820 -398 21 -3 38 1 55 15 l25 20 3
866 2 865 -400 201 c-219 110 -407 200 -417 200 -10 -1 -29 -7 -43 -15z"/>
</g>
</svg>
